<svg width="31" height="30" viewBox="0 0 31 30" fill="none" xmlns="http://www.w3.org/2000/svg">
<path d="M21.4797 0H8.99089C4.21708 0 0.333313 3.88377 0.333313 8.65757V21.1463C0.333313 25.9202 4.21708 29.8039 8.99089 29.8039H21.4797C26.2535 29.8039 30.1372 25.9202 30.1372 21.1464V8.65757C30.1372 3.88377 26.2535 0 21.4797 0ZM27.8088 21.1463C27.8088 24.6363 24.9696 27.4755 21.4797 27.4755H8.99089C5.50098 27.4755 2.66174 24.6363 2.66174 21.1464V8.65757C2.66174 5.16766 5.50098 2.32843 8.99089 2.32843H21.4797C24.9696 2.32843 27.8088 5.16766 27.8088 8.65757V21.1463Z" fill="black"/>
<path d="M15.2353 6.86914C10.8058 6.86914 7.20221 10.4727 7.20221 14.9022C7.20221 19.3317 10.8058 22.9353 15.2353 22.9353C19.6648 22.9353 23.2684 19.3317 23.2684 14.9022C23.2684 10.4727 19.6648 6.86914 15.2353 6.86914ZM15.2353 20.6069C12.0898 20.6069 9.53064 18.0478 9.53064 14.9022C9.53064 11.7567 12.0898 9.19757 15.2353 9.19757C18.3808 9.19757 20.94 11.7567 20.94 14.9022C20.94 18.0478 18.3808 20.6069 15.2353 20.6069Z" fill="black"/>
<path d="M23.3848 7.91681C24.0278 7.91681 24.549 7.39557 24.549 6.75259C24.549 6.10962 24.0278 5.58838 23.3848 5.58838C22.7418 5.58838 22.2206 6.10962 22.2206 6.75259C22.2206 7.39557 22.7418 7.91681 23.3848 7.91681Z" fill="black"/>
</svg>
