<svg width="26" height="30" viewBox="0 0 26 30" fill="none" xmlns="http://www.w3.org/2000/svg">
<path d="M3.95103 0H5.75357L6.99031 4.5973L8.13693 0H9.95699L7.87281 6.83635V11.502H6.08153V6.83635L3.95103 0V0ZM12.2052 2.94689C10.8044 2.94689 9.87563 3.86586 9.87563 5.22568V9.38461C9.87563 10.8798 10.663 11.6584 12.2052 11.6584C13.4845 11.6584 14.4909 10.8102 14.4909 9.38461V5.22568C14.4909 3.89815 13.4932 2.94689 12.2052 2.94689ZM12.8699 9.31382C12.8699 9.77579 12.632 10.1161 12.2039 10.1161C11.7645 10.1161 11.5104 9.75964 11.5104 9.31382V5.366C11.5104 4.90155 11.7257 4.55756 12.1726 4.55756C12.6608 4.55756 12.8699 4.89162 12.8699 5.366V9.31382ZM18.7894 3.01768V9.45788C18.5954 9.69879 18.1636 10.0937 17.8544 10.0937C17.5151 10.0937 17.4313 9.86272 17.4313 9.52245V3.01768H15.8415V10.1086C15.8415 10.9468 16.0994 11.6236 16.9519 11.6236C17.4325 11.6236 18.101 11.3753 18.7894 10.5644V11.5007H20.3792V3.01768H18.7894ZM21.5471 20.2271C20.9863 20.2271 20.8699 20.6183 20.8699 21.1747V21.993H22.208V21.1734C22.2093 20.627 22.0929 20.2271 21.5471 20.2271ZM15.66 20.2768C15.5549 20.3302 15.451 20.4122 15.3471 20.5227V25.5584C15.471 25.69 15.5899 25.7844 15.7063 25.8428C15.9529 25.9669 16.3135 25.9756 16.4812 25.7595C16.5688 25.6453 16.6126 25.4603 16.6126 25.202V21.0306C16.6126 20.7574 16.5588 20.5513 16.4511 20.4097C16.2671 20.17 15.9254 20.1439 15.66 20.2768ZM21.7023 13.8254C18.4427 13.6056 7.85027 13.6056 4.59569 13.8254C1.07322 14.0639 0.657635 16.175 0.631348 21.7323C0.657635 27.2796 1.06947 29.4006 4.59569 29.6391C7.85027 29.8589 18.4427 29.8589 21.7023 29.6391C25.2248 29.4006 25.6404 27.2883 25.6666 21.7323C25.6404 16.1849 25.2285 14.0639 21.7023 13.8254ZM6.27555 27.0958H4.5694V17.7323H2.80441V16.1427H8.03929V17.7323H6.2743V27.0958H6.27555ZM12.3416 27.0958H10.827V26.2041C10.5478 26.5332 10.2574 26.7841 9.95574 26.9554C9.13959 27.4199 8.01926 27.4087 8.01926 25.7695V19.0163H9.53265V25.2107C9.53265 25.536 9.61151 25.7546 9.93571 25.7546C10.2311 25.7546 10.6417 25.3783 10.8257 25.1498V19.0163H12.3404V27.0958H12.3416ZM18.1711 25.4218C18.1711 26.4215 17.7943 27.1988 16.7866 27.1988C16.2321 27.1988 15.7702 26.9977 15.3483 26.4749V27.0958H13.8199V16.1427H15.3483V19.6695C15.6901 19.256 16.1545 18.9145 16.6952 18.9145C17.8043 18.9145 18.1723 19.8447 18.1723 20.94V25.4218H18.1711ZM23.7677 23.2461H20.8711V24.771C20.8711 25.3771 20.9237 25.9011 21.5321 25.9011C22.1717 25.9011 22.2093 25.4739 22.2093 24.771V24.2097H23.7677V24.817C23.7677 26.373 23.0943 27.3168 21.4983 27.3168C20.0525 27.3168 19.3127 26.2712 19.3127 24.817V21.1896C19.3127 19.7875 20.2465 18.8127 21.6122 18.8127C23.0655 18.8127 23.7665 19.7292 23.7665 21.1896V23.2461H23.7677Z" fill="black"/>
</svg>
